<?xml version="1.0" encoding="iso-8859-1"?>
<!-- Generator: Adobe Illustrator 17.1.0, SVG Export Plug-In . SVG Version: 6.00 Build 0)  -->
<!DOCTYPE svg PUBLIC "-//W3C//DTD SVG 1.1//EN" "http://www.w3.org/Graphics/SVG/1.1/DTD/svg11.dtd">
<svg version="1.1" id="Capa_1" xmlns="http://www.w3.org/2000/svg" xmlns:xlink="http://www.w3.org/1999/xlink" x="0px" y="0px"
	 viewBox="0 0 198.932 198.932" style="enable-background:new 0 0 198.932 198.932;" xml:space="preserve">
<path d="M64.028,198.932c-4.375,0-8.487-1.703-11.58-4.796L4.796,146.483C1.703,143.39,0,139.278,0,134.904
	c0-4.375,1.703-8.487,4.796-11.58l96.375-96.375c5.589-5.589,14.247-6.285,20.598-2.091l5.447-5.446
	c2.876-2.875,7.554-2.875,10.428,0l4.82,4.819L174.346,9.62l7.028-7.028c3.724-3.724,10.109-3.396,14.235,0.73
	c4.126,4.125,4.454,10.511,0.731,14.235l-7.029,7.028L174.7,56.468l4.819,4.819c2.875,2.875,2.875,7.554,0,10.429l-5.446,5.446
	c4.195,6.354,3.498,15.01-2.091,20.599l-96.375,96.375C72.514,197.228,68.402,198.932,64.028,198.932z M55.983,190.6
	c2.149,2.148,5.006,3.332,8.044,3.332s5.895-1.183,8.043-3.332l82.141-82.14h-26.366l-18.956,18.956
	c-0.009,0.01-0.019,0.02-0.029,0.029c-0.01,0.01-0.02,0.02-0.029,0.029l-23.315,23.315c-0.01,0.01-0.02,0.02-0.029,0.029
	s-0.02,0.02-0.029,0.029l-17.297,17.296c-0.976,0.977-2.56,0.977-3.535,0l-6.192-6.192c-0.977-0.976-0.977-2.559,0-3.535
	c0.976-0.977,2.56-0.977,3.535,0l4.425,4.424l13.791-13.79l-4.424-4.425c-0.977-0.976-0.977-2.559,0-3.535
	c0.976-0.977,2.56-0.977,3.535,0l4.424,4.424l19.838-19.838l-4.424-4.425c-0.977-0.976-0.977-2.559,0-3.535
	c0.976-0.977,2.56-0.977,3.535,0l4.425,4.424l13.681-13.682H26.732l-18.4,18.399C6.183,129.008,5,131.865,5,134.904
	s1.183,5.895,3.332,8.043L55.983,190.6z M132.846,103.46h26.366l9.235-9.234c4.415-4.416,4.436-11.586,0.061-16.027l-47.713-47.714
	c-4.435-4.435-11.652-4.436-16.088,0L31.732,103.46h94.043l1.157-1.157l-4.424-4.424c-0.977-0.976-0.977-2.559,0-3.535
	c0.976-0.977,2.56-0.977,3.535,0l4.424,4.424l13.791-13.791l-4.424-4.425c-0.977-0.976-0.977-2.559,0-3.535
	c0.976-0.977,2.56-0.977,3.535,0l6.192,6.192c0.977,0.976,0.977,2.559,0,3.535L132.846,103.46z M125.54,28.159l45.232,45.233
	l5.212-5.211c0.926-0.926,0.926-2.433,0-3.358l-41.875-41.875c-0.926-0.925-2.432-0.925-3.358,0L125.54,28.159z M146.235,28.003
	l24.693,24.693l14.025-30.603c0.124-0.27,0.294-0.516,0.505-0.726l7.346-7.346c1.773-1.773,1.446-4.987-0.73-7.164
	c-2.176-2.176-5.39-2.504-7.165-0.73l-7.346,7.346c-0.21,0.21-0.456,0.381-0.726,0.505L146.235,28.003z"/>
<g>
</g>
<g>
</g>
<g>
</g>
<g>
</g>
<g>
</g>
<g>
</g>
<g>
</g>
<g>
</g>
<g>
</g>
<g>
</g>
<g>
</g>
<g>
</g>
<g>
</g>
<g>
</g>
<g>
</g>
</svg>
